<svg width="163" height="73" viewBox="0 0 163 73" fill="none" xmlns="http://www.w3.org/2000/svg">
<g clip-path="url(#clip0_201_2243)">
<path d="M27.9 21.2726C27.7875 21.2726 27.75 21.3476 27.675 21.3851L13.6125 31.3601C13.4625 31.4726 13.2375 31.7726 13.125 31.9601L12.6375 32.8976C15.3375 33.7601 17.4 35.8226 18.2625 38.5226L19.2 38.0351C19.3875 37.9226 19.65 37.7351 19.8 37.5476L29.775 23.4851C29.8875 23.2976 29.925 23.1476 29.775 22.9976L28.125 21.3476C28.05 21.2726 27.975 21.2351 27.9 21.2351V21.2726ZM9.975 36.1601C7.2 36.1601 5.0625 38.4476 5.0625 41.1851C5.0625 44.8976 3 48.1226 0.0375004 49.8476C1.5 50.6726 3.2625 51.1226 5.0625 51.1226C10.575 51.1226 15.0375 46.6976 15.0375 41.1476C15.0375 38.3726 12.75 36.1226 10.0125 36.1226L9.975 36.1601Z" fill="black"/>
</g>
<path d="M53.02 39.0202C52.7667 39.8735 52.3667 40.5868 51.82 41.1602C51.2733 41.7335 50.6267 42.1602 49.88 42.4402C49.1333 42.7202 48.3133 42.8602 47.42 42.8602C46.1133 42.8602 44.98 42.5868 44.02 42.0402C43.0733 41.4935 42.34 40.7135 41.82 39.7002C41.3133 38.6868 41.06 37.4735 41.06 36.0602C41.06 34.6468 41.3133 33.4335 41.82 32.4202C42.34 31.4068 43.0733 30.6268 44.02 30.0802C44.98 29.5335 46.1 29.2602 47.38 29.2602C48.2867 29.2602 49.1067 29.3868 49.84 29.6402C50.5733 29.8802 51.1933 30.2535 51.7 30.7602C52.22 31.2668 52.6 31.9068 52.84 32.6802L50.34 33.7402C50.1133 32.9402 49.7667 32.3735 49.3 32.0402C48.8333 31.6935 48.2333 31.5202 47.5 31.5202C46.78 31.5202 46.1467 31.6935 45.6 32.0402C45.0667 32.3868 44.6533 32.9002 44.36 33.5802C44.0667 34.2468 43.92 35.0735 43.92 36.0602C43.92 37.0335 44.0533 37.8602 44.32 38.5402C44.6 39.2202 45.0067 39.7335 45.54 40.0802C46.0733 40.4268 46.7267 40.6002 47.5 40.6002C48.22 40.6002 48.84 40.4068 49.36 40.0202C49.8933 39.6335 50.2667 39.0468 50.48 38.2602L53.02 39.0202ZM61.1923 29.2602C62.3923 29.2602 63.4457 29.4668 64.3523 29.8802C65.259 30.2935 66.0323 30.9068 66.6723 31.7202L65.1323 33.5002C64.5857 32.8068 63.9857 32.3002 63.3323 31.9802C62.6923 31.6468 61.9457 31.4802 61.0923 31.4802C60.5323 31.4802 60.0657 31.5535 59.6923 31.7002C59.3323 31.8468 59.0657 32.0402 58.8923 32.2802C58.7323 32.5202 58.6523 32.7868 58.6523 33.0802C58.6523 33.4402 58.7923 33.7468 59.0723 34.0002C59.3523 34.2402 59.8323 34.4402 60.5123 34.6002L62.9723 35.1602C64.279 35.4535 65.2123 35.8935 65.7723 36.4802C66.3457 37.0535 66.6323 37.8002 66.6323 38.7202C66.6323 39.5868 66.4057 40.3335 65.9523 40.9602C65.499 41.5735 64.8657 42.0468 64.0523 42.3802C63.239 42.7002 62.3057 42.8602 61.2523 42.8602C60.3323 42.8602 59.4857 42.7535 58.7123 42.5402C57.9523 42.3135 57.2723 42.0068 56.6723 41.6202C56.0723 41.2335 55.5723 40.7868 55.1723 40.2802L56.7323 38.4202C57.039 38.8468 57.419 39.2268 57.8723 39.5602C58.3257 39.8935 58.839 40.1602 59.4123 40.3602C59.999 40.5468 60.6123 40.6402 61.2523 40.6402C61.799 40.6402 62.259 40.5802 62.6323 40.4602C63.019 40.3268 63.3057 40.1468 63.4923 39.9202C63.6923 39.6802 63.7923 39.3935 63.7923 39.0602C63.7923 38.7135 63.6723 38.4202 63.4323 38.1802C63.2057 37.9268 62.779 37.7335 62.1523 37.6002L59.4723 37.0002C58.699 36.8135 58.0323 36.5735 57.4723 36.2802C56.9257 35.9735 56.5057 35.5868 56.2123 35.1202C55.9323 34.6402 55.7923 34.0735 55.7923 33.4202C55.7923 32.6335 56.0057 31.9268 56.4323 31.3002C56.859 30.6735 57.4723 30.1802 58.2723 29.8202C59.0857 29.4468 60.059 29.2602 61.1923 29.2602ZM75.0634 29.2602C76.2634 29.2602 77.3168 29.4668 78.2234 29.8802C79.1301 30.2935 79.9034 30.9068 80.5434 31.7202L79.0034 33.5002C78.4568 32.8068 77.8568 32.3002 77.2034 31.9802C76.5634 31.6468 75.8168 31.4802 74.9634 31.4802C74.4034 31.4802 73.9368 31.5535 73.5634 31.7002C73.2034 31.8468 72.9368 32.0402 72.7634 32.2802C72.6034 32.5202 72.5234 32.7868 72.5234 33.0802C72.5234 33.4402 72.6634 33.7468 72.9434 34.0002C73.2234 34.2402 73.7034 34.4402 74.3834 34.6002L76.8434 35.1602C78.1501 35.4535 79.0834 35.8935 79.6434 36.4802C80.2168 37.0535 80.5034 37.8002 80.5034 38.7202C80.5034 39.5868 80.2768 40.3335 79.8234 40.9602C79.3701 41.5735 78.7368 42.0468 77.9234 42.3802C77.1101 42.7002 76.1768 42.8602 75.1234 42.8602C74.2034 42.8602 73.3568 42.7535 72.5834 42.5402C71.8234 42.3135 71.1434 42.0068 70.5434 41.6202C69.9434 41.2335 69.4434 40.7868 69.0434 40.2802L70.6034 38.4202C70.9101 38.8468 71.2901 39.2268 71.7434 39.5602C72.1968 39.8935 72.7101 40.1602 73.2834 40.3602C73.8701 40.5468 74.4834 40.6402 75.1234 40.6402C75.6701 40.6402 76.1301 40.5802 76.5034 40.4602C76.8901 40.3268 77.1768 40.1468 77.3634 39.9202C77.5634 39.6802 77.6634 39.3935 77.6634 39.0602C77.6634 38.7135 77.5434 38.4202 77.3034 38.1802C77.0768 37.9268 76.6501 37.7335 76.0234 37.6002L73.3434 37.0002C72.5701 36.8135 71.9034 36.5735 71.3434 36.2802C70.7968 35.9735 70.3768 35.5868 70.0834 35.1202C69.8034 34.6402 69.6634 34.0735 69.6634 33.4202C69.6634 32.6335 69.8768 31.9268 70.3034 31.3002C70.7301 30.6735 71.3434 30.1802 72.1434 29.8202C72.9568 29.4468 73.9301 29.2602 75.0634 29.2602ZM91.1345 36.1802V38.5402H84.0745V36.1802H91.1345ZM104.226 29.4602V31.6802H99.8064V42.6602H97.0464V31.6802H92.6064V29.4602H104.226ZM106.967 42.6602V28.2802H109.707V34.3602C110.027 33.7202 110.467 33.2468 111.027 32.9402C111.587 32.6202 112.221 32.4602 112.927 32.4602C113.621 32.4602 114.234 32.5935 114.767 32.8602C115.314 33.1268 115.741 33.5335 116.047 34.0802C116.367 34.6135 116.527 35.2868 116.527 36.1002V42.6602H113.787V36.9002C113.787 36.0335 113.621 35.4402 113.287 35.1202C112.954 34.7868 112.527 34.6202 112.007 34.6202C111.621 34.6202 111.247 34.7135 110.887 34.9002C110.541 35.0735 110.254 35.3668 110.027 35.7802C109.814 36.1802 109.707 36.7135 109.707 37.3802V42.6602H106.967ZM124.99 42.8602C123.937 42.8602 123.017 42.6535 122.23 42.2402C121.457 41.8268 120.857 41.2335 120.43 40.4602C120.003 39.6868 119.79 38.7535 119.79 37.6602C119.79 36.5668 120.003 35.6335 120.43 34.8602C120.857 34.0868 121.45 33.4935 122.21 33.0802C122.983 32.6668 123.863 32.4602 124.85 32.4602C125.863 32.4602 126.723 32.6668 127.43 33.0802C128.137 33.4802 128.677 34.0335 129.05 34.7402C129.423 35.4335 129.61 36.2268 129.61 37.1202C129.61 37.3868 129.603 37.6402 129.59 37.8802C129.577 38.1202 129.557 38.3335 129.53 38.5202H121.55V36.6202H128.33L127.01 37.1002C127.01 36.2602 126.817 35.6135 126.43 35.1602C126.057 34.7068 125.523 34.4802 124.83 34.4802C124.323 34.4802 123.883 34.6002 123.51 34.8402C123.15 35.0802 122.877 35.4402 122.69 35.9202C122.503 36.3868 122.41 36.9802 122.41 37.7002C122.41 38.4068 122.51 38.9935 122.71 39.4602C122.923 39.9135 123.217 40.2535 123.59 40.4802C123.977 40.7068 124.437 40.8202 124.97 40.8202C125.557 40.8202 126.03 40.7068 126.39 40.4802C126.75 40.2535 127.03 39.9402 127.23 39.5402L129.41 40.3802C129.197 40.9002 128.87 41.3468 128.43 41.7202C128.003 42.0935 127.49 42.3802 126.89 42.5802C126.303 42.7668 125.67 42.8602 124.99 42.8602ZM132.932 42.6602V32.6602H135.392L135.492 34.4602C135.826 33.7935 136.279 33.2935 136.852 32.9602C137.439 32.6268 138.086 32.4602 138.792 32.4602C139.512 32.4602 140.159 32.6268 140.732 32.9602C141.319 33.2935 141.759 33.7868 142.052 34.4402C142.266 34.0002 142.552 33.6335 142.912 33.3402C143.272 33.0468 143.672 32.8268 144.112 32.6802C144.552 32.5335 144.999 32.4602 145.452 32.4602C146.106 32.4602 146.699 32.5935 147.232 32.8602C147.779 33.1268 148.212 33.5268 148.532 34.0602C148.852 34.5935 149.012 35.2735 149.012 36.1002V42.6602H146.272V36.6402C146.272 35.9068 146.112 35.3868 145.792 35.0802C145.472 34.7735 145.059 34.6202 144.552 34.6202C144.152 34.6202 143.779 34.7202 143.432 34.9202C143.099 35.1202 142.832 35.4202 142.632 35.8202C142.446 36.2068 142.352 36.6935 142.352 37.2802V42.6602H139.612V36.6402C139.612 35.9068 139.446 35.3868 139.112 35.0802C138.792 34.7735 138.379 34.6202 137.872 34.6202C137.526 34.6202 137.179 34.7135 136.832 34.9002C136.499 35.0868 136.219 35.3802 135.992 35.7802C135.779 36.1802 135.672 36.7068 135.672 37.3602V42.6602H132.932ZM157.478 42.8602C156.425 42.8602 155.505 42.6535 154.718 42.2402C153.945 41.8268 153.345 41.2335 152.918 40.4602C152.492 39.6868 152.278 38.7535 152.278 37.6602C152.278 36.5668 152.492 35.6335 152.918 34.8602C153.345 34.0868 153.938 33.4935 154.698 33.0802C155.472 32.6668 156.352 32.4602 157.338 32.4602C158.352 32.4602 159.212 32.6668 159.918 33.0802C160.625 33.4802 161.165 34.0335 161.538 34.7402C161.912 35.4335 162.098 36.2268 162.098 37.1202C162.098 37.3868 162.092 37.6402 162.078 37.8802C162.065 38.1202 162.045 38.3335 162.018 38.5202H154.038V36.6202H160.818L159.498 37.1002C159.498 36.2602 159.305 35.6135 158.918 35.1602C158.545 34.7068 158.012 34.4802 157.318 34.4802C156.812 34.4802 156.372 34.6002 155.998 34.8402C155.638 35.0802 155.365 35.4402 155.178 35.9202C154.992 36.3868 154.898 36.9802 154.898 37.7002C154.898 38.4068 154.998 38.9935 155.198 39.4602C155.412 39.9135 155.705 40.2535 156.078 40.4802C156.465 40.7068 156.925 40.8202 157.458 40.8202C158.045 40.8202 158.518 40.7068 158.878 40.4802C159.238 40.2535 159.518 39.9402 159.718 39.5402L161.898 40.3802C161.685 40.9002 161.358 41.3468 160.918 41.7202C160.492 42.0935 159.978 42.3802 159.378 42.5802C158.792 42.7668 158.158 42.8602 157.478 42.8602Z" fill="black"/>
<defs>
<clipPath id="clip0_201_2243">
<rect width="30" height="30" fill="white" transform="translate(0 21.1602)"/>
</clipPath>
</defs>
</svg>
